{
  "accessors": [
    {
      "bufferView": 2,
      "componentType": 5126,
      "count": 65532,
      "max": [
        0.2845599949359894,
        -0.002300000051036477,
        0.4706200063228607
      ],
      "min": [
        -0.25231000781059265,
        -0.0502300001680851,
        0.10311000049114227
      ],
      "type": "VEC3"
    },
    {
      "bufferView": 2,
      "byteOffset": 786384,
      "componentType": 5126,
      "count": 65532,
      "max": [
        1.0,
        0.9995161294937134,
        0.9999865293502808
      ],
      "min": [
        -0.9999984502792358,
        -1.0,
        -0.9993079900741577
      ],
      "type": "VEC3"
    },
    {
      "bufferView": 1,
      "componentType": 5126,
      "count": 65532,
      "max": [
        0.9960690140724182,
        0.9958329796791077
      ],
      "min": [
        0.00216599996201694,
        0.3469510078430176
      ],
      "type": "VEC2"
    },
    {
      "bufferView": 0,
      "componentType": 5125,
      "count": 359322,
      "type": "SCALAR"
    },
    {
      "bufferView": 2,
      "byteOffset": 1572768,
      "componentType": 5126,
      "count": 19847,
      "max": [
        0.2845599949359894,
        -0.008670000359416008,
        0.4706200063228607
      ],
      "min": [
        -0.25231000781059265,
        -0.04941000044345856,
        0.10311000049114227
      ],
      "type": "VEC3"
    },
    {
      "bufferView": 2,
      "byteOffset": 1810932,
      "componentType": 5126,
      "count": 19847,
      "max": [
        0.9982054233551025,
        0.15779361128807068,
        1.0
      ],
      "min": [
        -0.995527446269989,
        -1.0,
        -0.9908545017242432
      ],
      "type": "VEC3"
    },
    {
      "bufferView": 1,
      "byteOffset": 524256,
      "componentType": 5126,
      "count": 19847,
      "max": [
        0.8292250037193298,
        0.9581230282783508
      ],
      "min": [
        0.1351429969072342,
        0.4145140051841736
      ],
      "type": "VEC2"
    },
    {
      "bufferView": 0,
      "byteOffset": 1437288,
      "componentType": 5125,
      "count": 108597,
      "type": "SCALAR"
    }
  ],
  "asset": {
    "extras": {
      "author": "Specterras (https://sketchfab.com/specterras)",
      "license": "CC-BY-NC-SA-4.0 (http://creativecommons.org/licenses/by-nc-sa/4.0/)",
      "source": "https://sketchfab.com/3d-models/paul-cezanne-still-life-w-apples-1878-7bd82995a0f54d298312fb838bbf5194",
      "title": "Paul Cezanne - Still life w Apples (1878)"
    },
    "generator": "Sketchfab-14.87.0",
    "version": "2.0"
  },
  "bufferViews": [
    {
      "buffer": 0,
      "byteLength": 1871676,
      "name": "floatBufferViews",
      "target": 34963
    },
    {
      "buffer": 0,
      "byteLength": 683032,
      "byteOffset": 1871676,
      "byteStride": 8,
      "name": "floatBufferViews",
      "target": 34962
    },
    {
      "buffer": 0,
      "byteLength": 2049096,
      "byteOffset": 2554708,
      "byteStride": 12,
      "name": "floatBufferViews",
      "target": 34962
    }
  ],
  "buffers": [
    {
      "byteLength": 4603804,
      "uri": "scene.bin"
    }
  ],
  "extensionsUsed": [
    "KHR_materials_unlit"
  ],
  "images": [
    {
      "uri": "textures/main_baseColor.jpeg"
    }
  ],
  "materials": [
    {
      "doubleSided": true,
      "extensions": {
        "KHR_materials_unlit": {}
      },
      "name": "main",
      "pbrMetallicRoughness": {
        "baseColorTexture": {
          "index": 0
        },
        "metallicFactor": 0.0
      }
    }
  ],
  "meshes": [
    {
      "name": "Object_0",
      "primitives": [
        {
          "attributes": {
            "NORMAL": 1,
            "POSITION": 0,
            "TEXCOORD_0": 2
          },
          "indices": 3,
          "material": 0,
          "mode": 4
        }
      ]
    },
    {
      "name": "Object_1",
      "primitives": [
        {
          "attributes": {
            "NORMAL": 5,
            "POSITION": 4,
            "TEXCOORD_0": 6
          },
          "indices": 7,
          "material": 0,
          "mode": 4
        }
      ]
    }
  ],
  "nodes": [
    {
      "children": [
        1
      ],
      "matrix": [
        0.9999994039535522,
        -0.0010509545681998134,
        -0.00017812172882258916,
        0.0,
        -0.00015107150829862803,
        0.0256828945130112,
        -0.999670147895813,
        0.0,
        0.001055182539857924,
        0.99966961145401,
        0.025682721287012322,
        0.0,
        0.0,
        0.0,
        0.0,
        1.0
      ],
      "name": "Sketchfab_model"
    },
    {
      "children": [
        2,
        3
      ],
      "name": "Scaniverse.obj.cleaner.materialmerger.gles"
    },
    {
      "mesh": 0,
      "name": "Object_2"
    },
    {
      "mesh": 1,
      "name": "Object_3"
    }
  ],
  "samplers": [
    {
      "magFilter": 9729,
      "minFilter": 9987,
      "wrapS": 10497,
      "wrapT": 10497
    }
  ],
  "scene": 0,
  "scenes": [
    {
      "name": "Sketchfab_Scene",
      "nodes": [
        0
      ]
    }
  ],
  "textures": [
    {
      "sampler": 0,
      "source": 0
    }
  ]
}
