{
  "accessors": [
    {
      "bufferView": 2,
      "componentType": 5126,
      "count": 65532,
      "max": [
        0.408270001411438,
        0.06820999830961227,
        0.9557899832725525
      ],
      "min": [
        -0.43143999576568604,
        -0.04579000174999237,
        -0.04245999827980995
      ],
      "type": "VEC3"
    },
    {
      "bufferView": 2,
      "byteOffset": 786384,
      "componentType": 5126,
      "count": 65532,
      "max": [
        0.9991189241409302,
        0.97914057970047,
        0.9759432077407837
      ],
      "min": [
        -0.9860453605651855,
        -1.0,
        -0.9991251230239868
      ],
      "type": "VEC3"
    },
    {
      "bufferView": 1,
      "componentType": 5126,
      "count": 65532,
      "max": [
        0.9967039823532104,
        0.995756983757019
      ],
      "min": [
        0.002124000107869506,
        0.33035901188850403
      ],
      "type": "VEC2"
    },
    {
      "bufferView": 0,
      "componentType": 5125,
      "count": 370932,
      "type": "SCALAR"
    },
    {
      "bufferView": 2,
      "byteOffset": 1572768,
      "componentType": 5126,
      "count": 28562,
      "max": [
        0.408270001411438,
        0.07079000025987625,
        0.8331599831581116
      ],
      "min": [
        -0.43143999576568604,
        -0.04546999931335449,
        -0.04245999827980995
      ],
      "type": "VEC3"
    },
    {
      "bufferView": 2,
      "byteOffset": 1915512,
      "componentType": 5126,
      "count": 28562,
      "max": [
        0.9857013821601868,
        0.5041760802268982,
        0.9933093190193176
      ],
      "min": [
        -0.9239885807037354,
        -1.0,
        -0.9367080330848694
      ],
      "type": "VEC3"
    },
    {
      "bufferView": 1,
      "byteOffset": 524256,
      "componentType": 5126,
      "count": 28562,
      "max": [
        0.5914250016212463,
        0.9957510232925415
      ],
      "min": [
        0.002102999947965145,
        0.3304609954357147
      ],
      "type": "VEC2"
    },
    {
      "bufferView": 0,
      "byteOffset": 1483728,
      "componentType": 5125,
      "count": 157752,
      "type": "SCALAR"
    }
  ],
  "asset": {
    "extras": {
      "author": "Crazymaverickdc (https://sketchfab.com/Crazymaverickdc)",
      "license": "CC-BY-NC-SA-4.0 (http://creativecommons.org/licenses/by-nc-sa/4.0/)",
      "source": "https://sketchfab.com/3d-models/van-gogh-museum-self-portrait-1889-78d0beccab314718a075e5880ae310e1",
      "title": "Van Gogh Museum - Self Portrait 1889"
    },
    "generator": "Sketchfab-15.53.0",
    "version": "2.0"
  },
  "bufferViews": [
    {
      "buffer": 0,
      "byteLength": 2114736,
      "name": "floatBufferViews",
      "target": 34963
    },
    {
      "buffer": 0,
      "byteLength": 752752,
      "byteOffset": 2114736,
      "byteStride": 8,
      "name": "floatBufferViews",
      "target": 34962
    },
    {
      "buffer": 0,
      "byteLength": 2258256,
      "byteOffset": 2867488,
      "byteStride": 12,
      "name": "floatBufferViews",
      "target": 34962
    }
  ],
  "buffers": [
    {
      "byteLength": 5125744,
      "uri": "scene.bin"
    }
  ],
  "extensionsUsed": [
    "KHR_materials_unlit"
  ],
  "images": [
    {
      "uri": "textures/main_baseColor.jpeg"
    }
  ],
  "materials": [
    {
      "doubleSided": true,
      "extensions": {
        "KHR_materials_unlit": {}
      },
      "name": "main",
      "pbrMetallicRoughness": {
        "baseColorTexture": {
          "index": 0
        },
        "metallicFactor": 0.0
      }
    }
  ],
  "meshes": [
    {
      "name": "Object_0",
      "primitives": [
        {
          "attributes": {
            "NORMAL": 1,
            "POSITION": 0,
            "TEXCOORD_0": 2
          },
          "indices": 3,
          "material": 0,
          "mode": 4
        }
      ]
    },
    {
      "name": "Object_1",
      "primitives": [
        {
          "attributes": {
            "NORMAL": 5,
            "POSITION": 4,
            "TEXCOORD_0": 6
          },
          "indices": 7,
          "material": 0,
          "mode": 4
        }
      ]
    }
  ],
  "nodes": [
    {
      "children": [
        1
      ],
      "matrix": [
        1.0,
        0.0,
        0.0,
        0.0,
        0.0,
        2.220446049250313e-16,
        -1.0,
        0.0,
        0.0,
        1.0,
        2.220446049250313e-16,
        0.0,
        0.0,
        0.0,
        0.0,
        1.0
      ],
      "name": "Sketchfab_model"
    },
    {
      "children": [
        2,
        3
      ],
      "name": "Scaniverse.obj.cleaner.materialmerger.gles"
    },
    {
      "mesh": 0,
      "name": "Object_2"
    },
    {
      "mesh": 1,
      "name": "Object_3"
    }
  ],
  "samplers": [
    {
      "magFilter": 9729,
      "minFilter": 9987,
      "wrapS": 10497,
      "wrapT": 10497
    }
  ],
  "scene": 0,
  "scenes": [
    {
      "name": "Sketchfab_Scene",
      "nodes": [
        0
      ]
    }
  ],
  "textures": [
    {
      "sampler": 0,
      "source": 0
    }
  ]
}
