{
  "accessors": [
    {
      "bufferView": 2,
      "componentType": 5126,
      "count": 11112,
      "max": [
        506.9776611328125,
        494.30206298828125,
        384.7942199707031
      ],
      "min": [
        -493.02032470703125,
        -502.6439208984375,
        -419.6837158203125
      ],
      "type": "VEC3"
    },
    {
      "bufferView": 2,
      "byteOffset": 133344,
      "componentType": 5126,
      "count": 11112,
      "max": [
        0.9986557364463806,
        0.9999700784683228,
        0.9999366998672485
      ],
      "min": [
        -0.9999978542327881,
        -0.9999986290931702,
        -0.9998635649681091
      ],
      "type": "VEC3"
    },
    {
      "bufferView": 1,
      "componentType": 5126,
      "count": 11112,
      "max": [
        0.9952250123023987,
        0.9995669722557068
      ],
      "min": [
        0.0003809999907389283,
        0.001145999995060265
      ],
      "type": "VEC2"
    },
    {
      "bufferView": 0,
      "componentType": 5125,
      "count": 45552,
      "type": "SCALAR"
    }
  ],
  "asset": {
    "extras": {
      "author": "Photophobia (https://sketchfab.com/DanDare)",
      "license": "CC-BY-4.0 (http://creativecommons.org/licenses/by/4.0/)",
      "source": "https://sketchfab.com/3d-models/oil-painting-low-poly-7960054e55f24ea3927c06c8bcf58746",
      "title": "Oil Painting - low poly"
    },
    "generator": "Sketchfab-12.68.0",
    "version": "2.0"
  },
  "bufferViews": [
    {
      "buffer": 0,
      "byteLength": 182208,
      "name": "floatBufferViews",
      "target": 34963
    },
    {
      "buffer": 0,
      "byteLength": 88896,
      "byteOffset": 182208,
      "byteStride": 8,
      "name": "floatBufferViews",
      "target": 34962
    },
    {
      "buffer": 0,
      "byteLength": 266688,
      "byteOffset": 271104,
      "byteStride": 12,
      "name": "floatBufferViews",
      "target": 34962
    }
  ],
  "buffers": [
    {
      "byteLength": 537792,
      "uri": "scene.bin"
    }
  ],
  "extensionsRequired": [
    "KHR_materials_pbrSpecularGlossiness"
  ],
  "extensionsUsed": [
    "KHR_materials_pbrSpecularGlossiness"
  ],
  "images": [
    {
      "uri": "textures/maleri_small_2_0_diffuse.jpeg"
    }
  ],
  "materials": [
    {
      "extensions": {
        "KHR_materials_pbrSpecularGlossiness": {
          "diffuseFactor": [
            1.0,
            1.0,
            1.0,
            1.0
          ],
          "diffuseTexture": {
            "index": 0
          },
          "glossinessFactor": 0.4,
          "specularFactor": [
            0.0,
            0.0,
            0.0
          ]
        }
      },
      "name": "maleri_small_2_0"
    }
  ],
  "meshes": [
    {
      "name": "Object_0",
      "primitives": [
        {
          "attributes": {
            "NORMAL": 1,
            "POSITION": 0,
            "TEXCOORD_0": 2
          },
          "indices": 3,
          "material": 0,
          "mode": 4
        }
      ]
    }
  ],
  "nodes": [
    {
      "children": [
        1
      ],
      "matrix": [
        -0.8083208203315735,
        -0.026599287986755503,
        0.5881410241127014,
        0.0,
        -0.010451190173625946,
        -0.998173177242279,
        -0.05950717255473159,
        0.0,
        0.5886494517326355,
        -0.05424766242504138,
        0.8065661787986755,
        0.0,
        22.84393882751465,
        -22.368673324584964,
        13.888849258422846,
        1.0
      ],
      "name": "Sketchfab_model"
    },
    {
      "children": [
        2
      ],
      "name": "maleri_small_2.obj.cleaner.materialmerger.gles"
    },
    {
      "mesh": 0,
      "name": "Object_2"
    }
  ],
  "samplers": [
    {
      "magFilter": 9729,
      "minFilter": 9987,
      "wrapS": 10497,
      "wrapT": 10497
    }
  ],
  "scene": 0,
  "scenes": [
    {
      "name": "Sketchfab_Scene",
      "nodes": [
        0
      ]
    }
  ],
  "textures": [
    {
      "sampler": 0,
      "source": 0
    }
  ]
}
