{
  "accessors": [
    {
      "bufferView": 2,
      "componentType": 5126,
      "count": 65532,
      "max": [
        0.46373680233955383,
        0.5636358857154846,
        0.024502774700522423
      ],
      "min": [
        -0.46371880173683167,
        -0.5629442930221558,
        -0.04713132604956627
      ],
      "type": "VEC3"
    },
    {
      "bufferView": 2,
      "byteOffset": 786384,
      "componentType": 5126,
      "count": 65532,
      "max": [
        0.9997838735580444,
        1.0,
        0.9999877214431763
      ],
      "min": [
        -0.9996284246444702,
        -0.9998611211776733,
        -1.0
      ],
      "type": "VEC3"
    },
    {
      "bufferView": 1,
      "componentType": 5126,
      "count": 65532,
      "max": [
        2.1445200443267822,
        1.733698844909668
      ],
      "min": [
        -1.2867825031280518,
        -1.2241379022598267
      ],
      "type": "VEC2"
    },
    {
      "bufferView": 0,
      "componentType": 5125,
      "count": 290934,
      "type": "SCALAR"
    },
    {
      "bufferView": 2,
      "byteOffset": 1572768,
      "componentType": 5126,
      "count": 65532,
      "max": [
        0.45655810832977295,
        0.5572424530982971,
        0.024502772837877274
      ],
      "min": [
        -0.45654088258743286,
        -0.5564330816268921,
        -0.030080309137701988
      ],
      "type": "VEC3"
    },
    {
      "bufferView": 2,
      "byteOffset": 2359152,
      "componentType": 5126,
      "count": 65532,
      "max": [
        0.99994957447052,
        0.9997963905334473,
        0.9999420642852783
      ],
      "min": [
        -0.9998929500579834,
        -0.9998602867126465,
        -0.9775794744491577
      ],
      "type": "VEC3"
    },
    {
      "bufferView": 1,
      "byteOffset": 524256,
      "componentType": 5126,
      "count": 65532,
      "max": [
        2.1439766883850098,
        1.7328312397003174
      ],
      "min": [
        -1.2859063148498535,
        -1.2211676836013794
      ],
      "type": "VEC2"
    },
    {
      "bufferView": 0,
      "byteOffset": 1163736,
      "componentType": 5125,
      "count": 288675,
      "type": "SCALAR"
    },
    {
      "bufferView": 2,
      "byteOffset": 3145536,
      "componentType": 5126,
      "count": 65532,
      "max": [
        0.456464558839798,
        0.5570627450942993,
        0.024502772837877274
      ],
      "min": [
        -0.4565403461456299,
        -0.5565229654312134,
        -0.030080297961831093
      ],
      "type": "VEC3"
    },
    {
      "bufferView": 2,
      "byteOffset": 3931920,
      "componentType": 5126,
      "count": 65532,
      "max": [
        0.9997724294662476,
        0.9999474287033081,
        0.9999939203262329
      ],
      "min": [
        -0.99994957447052,
        -0.9998283386230469,
        -0.9994527101516724
      ],
      "type": "VEC3"
    },
    {
      "bufferView": 1,
      "byteOffset": 1048512,
      "componentType": 5126,
      "count": 65532,
      "max": [
        2.1439766883850098,
        1.733941912651062
      ],
      "min": [
        -1.2867825031280518,
        -1.2241379022598267
      ],
      "type": "VEC2"
    },
    {
      "bufferView": 0,
      "byteOffset": 2318436,
      "componentType": 5125,
      "count": 287382,
      "type": "SCALAR"
    },
    {
      "bufferView": 2,
      "byteOffset": 4718304,
      "componentType": 5126,
      "count": 65532,
      "max": [
        0.45646458864212036,
        0.5572459101676941,
        0.024502776563167572
      ],
      "min": [
        -0.4565408527851105,
        -0.5564392805099487,
        -0.030080311000347137
      ],
      "type": "VEC3"
    },
    {
      "bufferView": 2,
      "byteOffset": 5504688,
      "componentType": 5126,
      "count": 65532,
      "max": [
        0.9997944831848145,
        0.9998600482940674,
        0.9999877214431763
      ],
      "min": [
        -0.9999171495437622,
        -0.9999620914459229,
        -0.9950157999992371
      ],
      "type": "VEC3"
    },
    {
      "bufferView": 1,
      "byteOffset": 1572768,
      "componentType": 5126,
      "count": 65532,
      "max": [
        2.144592761993408,
        1.7338428497314453
      ],
      "min": [
        -1.286001205444336,
        -1.2241379022598267
      ],
      "type": "VEC2"
    },
    {
      "bufferView": 0,
      "byteOffset": 3467964,
      "componentType": 5125,
      "count": 283680,
      "type": "SCALAR"
    },
    {
      "bufferView": 2,
      "byteOffset": 6291072,
      "componentType": 5126,
      "count": 65532,
      "max": [
        0.45655813813209534,
        0.5572459101676941,
        0.024502774700522423
      ],
      "min": [
        -0.4565408527851105,
        -0.5565168857574463,
        -0.04713132604956627
      ],
      "type": "VEC3"
    },
    {
      "bufferView": 2,
      "byteOffset": 7077456,
      "componentType": 5126,
      "count": 65532,
      "max": [
        0.99994957447052,
        1.0,
        0.9999939203262329
      ],
      "min": [
        -1.0,
        -0.9998613595962524,
        -0.9979512691497803
      ],
      "type": "VEC3"
    },
    {
      "bufferView": 1,
      "byteOffset": 2097024,
      "componentType": 5126,
      "count": 65532,
      "max": [
        2.1441736221313477,
        1.7339560985565186
      ],
      "min": [
        -1.2867825031280518,
        -1.2241379022598267
      ],
      "type": "VEC2"
    },
    {
      "bufferView": 0,
      "byteOffset": 4602684,
      "componentType": 5125,
      "count": 279021,
      "type": "SCALAR"
    },
    {
      "bufferView": 2,
      "byteOffset": 7863840,
      "componentType": 5126,
      "count": 65532,
      "max": [
        0.45655807852745056,
        0.5571625232696533,
        0.024502776563167572
      ],
      "min": [
        -0.456634521484375,
        -0.5564321279525757,
        -0.04713132604956627
      ],
      "type": "VEC3"
    },
    {
      "bufferView": 2,
      "byteOffset": 8650224,
      "componentType": 5126,
      "count": 65532,
      "max": [
        0.999793529510498,
        0.9999479055404663,
        0.9999939203262329
      ],
      "min": [
        -0.9998774528503418,
        -1.0,
        -0.9979596734046936
      ],
      "type": "VEC3"
    },
    {
      "bufferView": 1,
      "byteOffset": 2621280,
      "componentType": 5126,
      "count": 65532,
      "max": [
        2.144623041152954,
        1.7338212728500366
      ],
      "min": [
        -1.286381721496582,
        -1.2240843772888184
      ],
      "type": "VEC2"
    },
    {
      "bufferView": 0,
      "byteOffset": 5718768,
      "componentType": 5125,
      "count": 264567,
      "type": "SCALAR"
    },
    {
      "bufferView": 2,
      "byteOffset": 9436608,
      "componentType": 5126,
      "count": 65532,
      "max": [
        0.46363115310668945,
        0.5635446906089783,
        0.024502774700522423
      ],
      "min": [
        -0.4566344916820526,
        -0.5629319548606873,
        -0.047131311148405075
      ],
      "type": "VEC3"
    },
    {
      "bufferView": 2,
      "byteOffset": 10222992,
      "componentType": 5126,
      "count": 65532,
      "max": [
        0.9999179840087891,
        0.9999479055404663,
        0.9999878406524658
      ],
      "min": [
        -1.0,
        -0.9998283386230469,
        -0.9994537830352783
      ],
      "type": "VEC3"
    },
    {
      "bufferView": 1,
      "byteOffset": 3145536,
      "componentType": 5126,
      "count": 65532,
      "max": [
        2.1446373462677,
        1.7338212728500366
      ],
      "min": [
        -1.2867825031280518,
        -1.2241379022598267
      ],
      "type": "VEC2"
    },
    {
      "bufferView": 0,
      "byteOffset": 6777036,
      "componentType": 5125,
      "count": 234801,
      "type": "SCALAR"
    },
    {
      "bufferView": 2,
      "byteOffset": 11009376,
      "componentType": 5126,
      "count": 58020,
      "max": [
        0.46373680233955383,
        0.563646674156189,
        0.024502772837877274
      ],
      "min": [
        -0.46381282806396484,
        -0.5629442930221558,
        -0.04713132604956627
      ],
      "type": "VEC3"
    },
    {
      "bufferView": 2,
      "byteOffset": 11705616,
      "componentType": 5126,
      "count": 58020,
      "max": [
        1.0,
        1.0,
        0.9999449253082275
      ],
      "min": [
        -1.0,
        -1.0,
        -0.9979624152183533
      ],
      "type": "VEC3"
    },
    {
      "bufferView": 1,
      "byteOffset": 3669792,
      "componentType": 5126,
      "count": 58020,
      "max": [
        2.1444506645202637,
        2.224137783050537
      ],
      "min": [
        -1.2867825031280518,
        -1.2241379022598267
      ],
      "type": "VEC2"
    },
    {
      "bufferView": 0,
      "byteOffset": 7716240,
      "componentType": 5125,
      "count": 131901,
      "type": "SCALAR"
    },
    {
      "bufferView": 2,
      "byteOffset": 12401856,
      "componentType": 5126,
      "count": 20,
      "max": [
        0.3400000035762787,
        0.45500001311302185,
        0.02500000037252903
      ],
      "min": [
        -0.3400000035762787,
        -0.45500001311302185,
        0.011207970790565014
      ],
      "type": "VEC3"
    },
    {
      "bufferView": 2,
      "byteOffset": 12402096,
      "componentType": 5126,
      "count": 20,
      "max": [
        1.0,
        1.0,
        1.0
      ],
      "min": [
        -1.0,
        -1.0,
        -0.0
      ],
      "type": "VEC3"
    },
    {
      "bufferView": 1,
      "byteOffset": 4133952,
      "componentType": 5126,
      "count": 20,
      "max": [
        1.0,
        1.0
      ],
      "min": [
        0.0,
        0.0
      ],
      "type": "VEC2"
    },
    {
      "bufferView": 1,
      "byteOffset": 4134112,
      "componentType": 5126,
      "count": 20,
      "max": [
        1.0,
        1.0
      ],
      "min": [
        0.0,
        0.0
      ],
      "type": "VEC2"
    },
    {
      "bufferView": 0,
      "byteOffset": 8243844,
      "componentType": 5125,
      "count": 30,
      "type": "SCALAR"
    },
    {
      "bufferView": 2,
      "byteOffset": 12402336,
      "componentType": 5126,
      "count": 4,
      "max": [
        0.3400000035762787,
        0.45500001311302185,
        0.011207970790565014
      ],
      "min": [
        -0.3400000035762787,
        -0.45500001311302185,
        0.011207970790565014
      ],
      "type": "VEC3"
    },
    {
      "bufferView": 2,
      "byteOffset": 12402384,
      "componentType": 5126,
      "count": 4,
      "max": [
        0.0,
        0.0,
        -1.0
      ],
      "min": [
        0.0,
        0.0,
        -1.0
      ],
      "type": "VEC3"
    },
    {
      "bufferView": 1,
      "byteOffset": 4134272,
      "componentType": 5126,
      "count": 4,
      "max": [
        0.9882837533950806,
        0.988057553768158
      ],
      "min": [
        0.021891819313168526,
        0.015436460264027119
      ],
      "type": "VEC2"
    },
    {
      "bufferView": 1,
      "byteOffset": 4134304,
      "componentType": 5126,
      "count": 4,
      "max": [
        0.9882837533950806,
        0.988057553768158
      ],
      "min": [
        0.021891819313168526,
        0.015436460264027119
      ],
      "type": "VEC2"
    },
    {
      "bufferView": 0,
      "byteOffset": 8243964,
      "componentType": 5125,
      "count": 6,
      "type": "SCALAR"
    }
  ],
  "asset": {
    "extras": {
      "author": "mfb64 (https://sketchfab.com/mfb64)",
      "license": "CC-BY-4.0 (http://creativecommons.org/licenses/by/4.0/)",
      "source": "https://sketchfab.com/3d-models/paul-gauguin-vairaumati-tei-oa-49209336ef6b4dd8965f26c35edc6b6c",
      "title": "Paul Gauguin . Vairaumati Tei Oa"
    },
    "generator": "Sketchfab-13.17.0",
    "version": "2.0"
  },
  "bufferViews": [
    {
      "buffer": 0,
      "byteLength": 8243988,
      "name": "floatBufferViews",
      "target": 34963
    },
    {
      "buffer": 0,
      "byteLength": 4134336,
      "byteOffset": 8243988,
      "byteStride": 8,
      "name": "floatBufferViews",
      "target": 34962
    },
    {
      "buffer": 0,
      "byteLength": 12402432,
      "byteOffset": 12378324,
      "byteStride": 12,
      "name": "floatBufferViews",
      "target": 34962
    }
  ],
  "buffers": [
    {
      "byteLength": 24780756,
      "uri": "scene.bin"
    }
  ],
  "images": [
    {
      "uri": "textures/frame_baseColor.jpeg"
    },
    {
      "uri": "textures/Paint_baseColor.jpeg"
    },
    {
      "uri": "textures/Paint.back_baseColor.jpeg"
    }
  ],
  "materials": [
    {
      "doubleSided": true,
      "name": "frame",
      "pbrMetallicRoughness": {
        "baseColorTexture": {
          "index": 0
        },
        "metallicFactor": 0.5,
        "roughnessFactor": 0.7
      }
    },
    {
      "doubleSided": true,
      "name": "Paint",
      "pbrMetallicRoughness": {
        "baseColorTexture": {
          "index": 1
        },
        "metallicFactor": 0.0,
        "roughnessFactor": 0.8
      }
    },
    {
      "doubleSided": true,
      "name": "Paint.back",
      "pbrMetallicRoughness": {
        "baseColorTexture": {
          "index": 2
        },
        "metallicFactor": 0.0,
        "roughnessFactor": 0.8
      }
    }
  ],
  "meshes": [
    {
      "name": "Object_0",
      "primitives": [
        {
          "attributes": {
            "NORMAL": 1,
            "POSITION": 0,
            "TEXCOORD_0": 2
          },
          "indices": 3,
          "material": 0,
          "mode": 4
        }
      ]
    },
    {
      "name": "Object_1",
      "primitives": [
        {
          "attributes": {
            "NORMAL": 5,
            "POSITION": 4,
            "TEXCOORD_0": 6
          },
          "indices": 7,
          "material": 0,
          "mode": 4
        }
      ]
    },
    {
      "name": "Object_2",
      "primitives": [
        {
          "attributes": {
            "NORMAL": 9,
            "POSITION": 8,
            "TEXCOORD_0": 10
          },
          "indices": 11,
          "material": 0,
          "mode": 4
        }
      ]
    },
    {
      "name": "Object_3",
      "primitives": [
        {
          "attributes": {
            "NORMAL": 13,
            "POSITION": 12,
            "TEXCOORD_0": 14
          },
          "indices": 15,
          "material": 0,
          "mode": 4
        }
      ]
    },
    {
      "name": "Object_4",
      "primitives": [
        {
          "attributes": {
            "NORMAL": 17,
            "POSITION": 16,
            "TEXCOORD_0": 18
          },
          "indices": 19,
          "material": 0,
          "mode": 4
        }
      ]
    },
    {
      "name": "Object_5",
      "primitives": [
        {
          "attributes": {
            "NORMAL": 21,
            "POSITION": 20,
            "TEXCOORD_0": 22
          },
          "indices": 23,
          "material": 0,
          "mode": 4
        }
      ]
    },
    {
      "name": "Object_6",
      "primitives": [
        {
          "attributes": {
            "NORMAL": 25,
            "POSITION": 24,
            "TEXCOORD_0": 26
          },
          "indices": 27,
          "material": 0,
          "mode": 4
        }
      ]
    },
    {
      "name": "Object_7",
      "primitives": [
        {
          "attributes": {
            "NORMAL": 29,
            "POSITION": 28,
            "TEXCOORD_0": 30
          },
          "indices": 31,
          "material": 0,
          "mode": 4
        }
      ]
    },
    {
      "name": "Object_8",
      "primitives": [
        {
          "attributes": {
            "NORMAL": 33,
            "POSITION": 32,
            "TEXCOORD_0": 34,
            "TEXCOORD_1": 35
          },
          "indices": 36,
          "material": 1,
          "mode": 4
        }
      ]
    },
    {
      "name": "Object_9",
      "primitives": [
        {
          "attributes": {
            "NORMAL": 38,
            "POSITION": 37,
            "TEXCOORD_0": 39,
            "TEXCOORD_1": 40
          },
          "indices": 41,
          "material": 2,
          "mode": 4
        }
      ]
    }
  ],
  "nodes": [
    {
      "children": [
        1
      ],
      "matrix": [
        1.0,
        0.0,
        0.0,
        0.0,
        0.0,
        2.220446049250313e-16,
        -1.0,
        0.0,
        0.0,
        1.0,
        2.220446049250313e-16,
        0.0,
        0.0,
        0.0,
        0.0,
        1.0
      ],
      "name": "Sketchfab_model"
    },
    {
      "children": [
        2
      ],
      "name": "root"
    },
    {
      "children": [
        3,
        12
      ],
      "matrix": [
        1.0,
        0.0,
        0.0,
        0.0,
        0.0,
        2.220446049250313e-16,
        1.0,
        0.0,
        0.0,
        -1.0,
        2.220446049250313e-16,
        0.0,
        0.0,
        0.0,
        0.0,
        1.0
      ],
      "name": "GLTF_SceneRootNode"
    },
    {
      "children": [
        4,
        5,
        6,
        7,
        8,
        9,
        10,
        11
      ],
      "name": "Frame_0"
    },
    {
      "mesh": 0,
      "name": "Object_4"
    },
    {
      "mesh": 1,
      "name": "Object_5"
    },
    {
      "mesh": 2,
      "name": "Object_6"
    },
    {
      "mesh": 3,
      "name": "Object_7"
    },
    {
      "mesh": 4,
      "name": "Object_8"
    },
    {
      "mesh": 5,
      "name": "Object_9"
    },
    {
      "mesh": 6,
      "name": "Object_10"
    },
    {
      "mesh": 7,
      "name": "Object_11"
    },
    {
      "children": [
        13,
        14
      ],
      "matrix": [
        1.0,
        0.0,
        0.0,
        0.0,
        0.0,
        1.0,
        0.0,
        0.0,
        0.0,
        0.0,
        1.0,
        0.0,
        0.0,
        0.0,
        -0.05833929032087326,
        1.0
      ],
      "name": "Vairaumati Tei Oa_1"
    },
    {
      "mesh": 8,
      "name": "Object_13"
    },
    {
      "mesh": 9,
      "name": "Object_14"
    }
  ],
  "samplers": [
    {
      "magFilter": 9729,
      "minFilter": 9987,
      "wrapS": 10497,
      "wrapT": 10497
    }
  ],
  "scene": 0,
  "scenes": [
    {
      "name": "Sketchfab_Scene",
      "nodes": [
        0
      ]
    }
  ],
  "textures": [
    {
      "sampler": 0,
      "source": 0
    },
    {
      "sampler": 0,
      "source": 1
    },
    {
      "sampler": 0,
      "source": 2
    }
  ]
}
