{
  "accessors": [
    {
      "bufferView": 2,
      "componentType": 5126,
      "count": 65532,
      "max": [
        0.5262200236320496,
        0.04874999821186066,
        0.9855599999427795
      ],
      "min": [
        -0.6332799792289734,
        -0.06328000128269196,
        0.02882000058889389
      ],
      "type": "VEC3"
    },
    {
      "bufferView": 2,
      "byteOffset": 786384,
      "componentType": 5126,
      "count": 65532,
      "max": [
        0.999433696269989,
        0.584003746509552,
        0.9991526007652283
      ],
      "min": [
        -0.999626100063324,
        -1.0,
        -0.9995822906494141
      ],
      "type": "VEC3"
    },
    {
      "bufferView": 1,
      "componentType": 5126,
      "count": 65532,
      "max": [
        0.9977139830589294,
        0.9936379790306091
      ],
      "min": [
        0.005016999784857035,
        0.42012301087379456
      ],
      "type": "VEC2"
    },
    {
      "bufferView": 0,
      "componentType": 5125,
      "count": 354894,
      "type": "SCALAR"
    },
    {
      "bufferView": 2,
      "byteOffset": 1572768,
      "componentType": 5126,
      "count": 65532,
      "max": [
        0.5262200236320496,
        0.04864000156521797,
        0.9855599999427795
      ],
      "min": [
        -0.6332799792289734,
        -0.05469999834895134,
        0.014999999664723873
      ],
      "type": "VEC3"
    },
    {
      "bufferView": 2,
      "byteOffset": 2359152,
      "componentType": 5126,
      "count": 65532,
      "max": [
        0.9946398138999939,
        0.34452611207962036,
        0.9795742034912109
      ],
      "min": [
        -0.9997801780700684,
        -1.0,
        -0.9236899614334106
      ],
      "type": "VEC3"
    },
    {
      "bufferView": 1,
      "byteOffset": 524256,
      "componentType": 5126,
      "count": 65532,
      "max": [
        0.6722620129585266,
        0.9979220032691956
      ],
      "min": [
        0.002093000104650855,
        0.6765879988670349
      ],
      "type": "VEC2"
    },
    {
      "bufferView": 0,
      "byteOffset": 1419576,
      "componentType": 5125,
      "count": 354948,
      "type": "SCALAR"
    },
    {
      "bufferView": 2,
      "byteOffset": 3145536,
      "componentType": 5126,
      "count": 45221,
      "max": [
        0.5262200236320496,
        0.048909999430179596,
        0.9855599999427795
      ],
      "min": [
        -0.6262099742889404,
        -0.06289999932050705,
        0.014999999664723873
      ],
      "type": "VEC3"
    },
    {
      "bufferView": 2,
      "byteOffset": 3688188,
      "componentType": 5126,
      "count": 45221,
      "max": [
        0.9945498704910278,
        0.22687047719955444,
        0.9978651404380798
      ],
      "min": [
        -0.9887235760688782,
        -1.0,
        -0.9999921321868896
      ],
      "type": "VEC3"
    },
    {
      "bufferView": 1,
      "byteOffset": 1048512,
      "componentType": 5126,
      "count": 45221,
      "max": [
        0.8748430013656616,
        0.9978150129318237
      ],
      "min": [
        0.002116000046953559,
        0.5100430250167847
      ],
      "type": "VEC2"
    },
    {
      "bufferView": 0,
      "byteOffset": 2839368,
      "componentType": 5125,
      "count": 252183,
      "type": "SCALAR"
    }
  ],
  "asset": {
    "extras": {
      "author": "Crazymaverickdc (https://sketchfab.com/Crazymaverickdc)",
      "license": "CC-BY-NC-SA-4.0 (http://creativecommons.org/licenses/by-nc-sa/4.0/)",
      "source": "https://sketchfab.com/3d-models/van-gogh-museum-olive-grove-1a651c64f5974573834e664f70ef5bab",
      "title": "Van Gogh Museum - Olive Grove"
    },
    "generator": "Sketchfab-15.53.0",
    "version": "2.0"
  },
  "bufferViews": [
    {
      "buffer": 0,
      "byteLength": 3848100,
      "name": "floatBufferViews",
      "target": 34963
    },
    {
      "buffer": 0,
      "byteLength": 1410280,
      "byteOffset": 3848100,
      "byteStride": 8,
      "name": "floatBufferViews",
      "target": 34962
    },
    {
      "buffer": 0,
      "byteLength": 4230840,
      "byteOffset": 5258380,
      "byteStride": 12,
      "name": "floatBufferViews",
      "target": 34962
    }
  ],
  "buffers": [
    {
      "byteLength": 9489220,
      "uri": "scene.bin"
    }
  ],
  "extensionsUsed": [
    "KHR_materials_unlit"
  ],
  "images": [
    {
      "uri": "textures/main_baseColor.jpeg"
    }
  ],
  "materials": [
    {
      "doubleSided": true,
      "extensions": {
        "KHR_materials_unlit": {}
      },
      "name": "main",
      "pbrMetallicRoughness": {
        "baseColorTexture": {
          "index": 0
        },
        "metallicFactor": 0.0
      }
    }
  ],
  "meshes": [
    {
      "name": "Object_0",
      "primitives": [
        {
          "attributes": {
            "NORMAL": 1,
            "POSITION": 0,
            "TEXCOORD_0": 2
          },
          "indices": 3,
          "material": 0,
          "mode": 4
        }
      ]
    },
    {
      "name": "Object_1",
      "primitives": [
        {
          "attributes": {
            "NORMAL": 5,
            "POSITION": 4,
            "TEXCOORD_0": 6
          },
          "indices": 7,
          "material": 0,
          "mode": 4
        }
      ]
    },
    {
      "name": "Object_2",
      "primitives": [
        {
          "attributes": {
            "NORMAL": 9,
            "POSITION": 8,
            "TEXCOORD_0": 10
          },
          "indices": 11,
          "material": 0,
          "mode": 4
        }
      ]
    }
  ],
  "nodes": [
    {
      "children": [
        1
      ],
      "matrix": [
        1.0,
        0.0,
        0.0,
        0.0,
        0.0,
        2.220446049250313e-16,
        -1.0,
        0.0,
        0.0,
        1.0,
        2.220446049250313e-16,
        0.0,
        0.0,
        0.0,
        0.0,
        1.0
      ],
      "name": "Sketchfab_model"
    },
    {
      "children": [
        2,
        3,
        4
      ],
      "name": "Scaniverse.obj.cleaner.materialmerger.gles"
    },
    {
      "mesh": 0,
      "name": "Object_2"
    },
    {
      "mesh": 1,
      "name": "Object_3"
    },
    {
      "mesh": 2,
      "name": "Object_4"
    }
  ],
  "samplers": [
    {
      "magFilter": 9729,
      "minFilter": 9987,
      "wrapS": 10497,
      "wrapT": 10497
    }
  ],
  "scene": 0,
  "scenes": [
    {
      "name": "Sketchfab_Scene",
      "nodes": [
        0
      ]
    }
  ],
  "textures": [
    {
      "sampler": 0,
      "source": 0
    }
  ]
}
