{
  "accessors": [
    {
      "bufferView": 2,
      "componentType": 5126,
      "count": 65532,
      "max": [
        0.2553600072860718,
        0.044270001351833344,
        1.1159499883651733
      ],
      "min": [
        -0.35256001353263855,
        -0.11010999977588654,
        0.6202600002288818
      ],
      "type": "VEC3"
    },
    {
      "bufferView": 2,
      "byteOffset": 786384,
      "componentType": 5126,
      "count": 65532,
      "max": [
        0.999973714351654,
        0.9963322877883911,
        0.9997454285621643
      ],
      "min": [
        -0.9999938607215881,
        -1.0,
        -0.9999717473983765
      ],
      "type": "VEC3"
    },
    {
      "bufferView": 1,
      "componentType": 5126,
      "count": 65532,
      "max": [
        0.9978029727935791,
        0.9978740215301514
      ],
      "min": [
        0.0020779999904334545,
        0.4668020009994507
      ],
      "type": "VEC2"
    },
    {
      "bufferView": 0,
      "componentType": 5125,
      "count": 356187,
      "type": "SCALAR"
    },
    {
      "bufferView": 2,
      "byteOffset": 1572768,
      "componentType": 5126,
      "count": 23224,
      "max": [
        0.2553600072860718,
        0.04315999895334244,
        1.1159499883651733
      ],
      "min": [
        -0.35256001353263855,
        -0.10907000303268433,
        0.6202600002288818
      ],
      "type": "VEC3"
    },
    {
      "bufferView": 2,
      "byteOffset": 1851456,
      "componentType": 5126,
      "count": 23224,
      "max": [
        0.9999986290931702,
        0.9963322877883911,
        0.9997454285621643
      ],
      "min": [
        -0.9999986290931702,
        -0.999991774559021,
        -0.9998238682746887
      ],
      "type": "VEC3"
    },
    {
      "bufferView": 1,
      "byteOffset": 524256,
      "componentType": 5126,
      "count": 23224,
      "max": [
        0.9678130149841309,
        0.8704820275306702
      ],
      "min": [
        0.16699199378490448,
        0.47458401322364807
      ],
      "type": "VEC2"
    },
    {
      "bufferView": 0,
      "byteOffset": 1424748,
      "componentType": 5125,
      "count": 127842,
      "type": "SCALAR"
    }
  ],
  "asset": {
    "extras": {
      "author": "AnDeNan (https://sketchfab.com/saladeen)",
      "license": "CC-BY-NC-SA-4.0 (http://creativecommons.org/licenses/by-nc-sa/4.0/)",
      "source": "https://sketchfab.com/3d-models/une-inconvenance-38ab9a95be1545bcbe57a41e1e405161",
      "title": "Une inconvenance"
    },
    "generator": "Sketchfab-15.40.0",
    "version": "2.0"
  },
  "bufferViews": [
    {
      "buffer": 0,
      "byteLength": 1936116,
      "name": "floatBufferViews",
      "target": 34963
    },
    {
      "buffer": 0,
      "byteLength": 710048,
      "byteOffset": 1936116,
      "byteStride": 8,
      "name": "floatBufferViews",
      "target": 34962
    },
    {
      "buffer": 0,
      "byteLength": 2130144,
      "byteOffset": 2646164,
      "byteStride": 12,
      "name": "floatBufferViews",
      "target": 34962
    }
  ],
  "buffers": [
    {
      "byteLength": 4776308,
      "uri": "scene.bin"
    }
  ],
  "extensionsUsed": [
    "KHR_materials_unlit"
  ],
  "images": [
    {
      "uri": "textures/main_baseColor.jpeg"
    }
  ],
  "materials": [
    {
      "doubleSided": true,
      "extensions": {
        "KHR_materials_unlit": {}
      },
      "name": "main",
      "pbrMetallicRoughness": {
        "baseColorTexture": {
          "index": 0
        },
        "metallicFactor": 0.0
      }
    }
  ],
  "meshes": [
    {
      "name": "Object_0",
      "primitives": [
        {
          "attributes": {
            "NORMAL": 1,
            "POSITION": 0,
            "TEXCOORD_0": 2
          },
          "indices": 3,
          "material": 0,
          "mode": 4
        }
      ]
    },
    {
      "name": "Object_1",
      "primitives": [
        {
          "attributes": {
            "NORMAL": 5,
            "POSITION": 4,
            "TEXCOORD_0": 6
          },
          "indices": 7,
          "material": 0,
          "mode": 4
        }
      ]
    }
  ],
  "nodes": [
    {
      "children": [
        1
      ],
      "matrix": [
        1.0,
        0.0,
        0.0,
        0.0,
        0.0,
        2.220446049250313e-16,
        -1.0,
        0.0,
        0.0,
        1.0,
        2.220446049250313e-16,
        0.0,
        0.0,
        0.0,
        0.0,
        1.0
      ],
      "name": "Sketchfab_model"
    },
    {
      "children": [
        2,
        3
      ],
      "name": "Scaniverse.obj.cleaner.materialmerger.gles"
    },
    {
      "mesh": 0,
      "name": "Object_2"
    },
    {
      "mesh": 1,
      "name": "Object_3"
    }
  ],
  "samplers": [
    {
      "magFilter": 9729,
      "minFilter": 9987,
      "wrapS": 10497,
      "wrapT": 10497
    }
  ],
  "scene": 0,
  "scenes": [
    {
      "name": "Sketchfab_Scene",
      "nodes": [
        0
      ]
    }
  ],
  "textures": [
    {
      "sampler": 0,
      "source": 0
    }
  ]
}
